<?xml version="1.0" standalone="no"?>
<svg viewBox="0 0 200 200" xmlns="http://www.w3.org/2000/svg">
  <path fill="#FF0066" d="M33.2,-60.6C39.1,-54,37.5,-37.3,46.3,-25.6C55.2,-13.8,74.5,-6.9,78.6,2.4C82.8,11.7,71.9,23.5,60.1,30C48.2,36.6,35.5,38,25.4,40.9C15.2,43.7,7.6,48,-2.5,52.3C-12.6,56.6,-25.1,61,-35.1,58C-45,55,-52.2,44.7,-54.5,33.8C-56.7,22.9,-53.9,11.5,-53,0.5C-52.1,-10.4,-53.1,-20.8,-48.7,-27.9C-44.2,-35,-34.5,-38.9,-25.5,-43.8C-16.5,-48.8,-8.2,-54.8,2.7,-59.4C13.6,-64,27.2,-67.3,33.2,-60.6Z" transform="translate(100 100)" />
</svg>
