<?xml version="1.0" standalone="no"?>
<svg viewBox="0 0 200 200" xmlns="http://www.w3.org/2000/svg">
  <path fill="#8A3FFC" d="M26.2,-41.2C36.7,-39.3,49.7,-37.8,51.2,-31C52.7,-24.2,42.6,-12.1,37.5,-3C32.3,6.2,32.2,12.4,28.3,14.8C24.3,17.3,16.4,16.1,11.1,21C5.7,26,2.9,37.1,-1,38.8C-4.8,40.5,-9.6,32.7,-11.9,26C-14.2,19.3,-13.9,13.6,-21.9,9.4C-29.8,5.3,-46,2.6,-47.1,-0.6C-48.2,-3.9,-34.3,-7.8,-25.8,-11.1C-17.3,-14.4,-14.3,-17,-11,-22.9C-7.6,-28.9,-3.8,-38.1,2,-41.6C7.9,-45.2,15.7,-43,26.2,-41.2Z" transform="translate(100 100)" />
</svg>
